<?xml version="1.0" encoding="UTF-8" standalone="no"?>
<!-- Svg Vector Icons : http://www.onlinewebfonts.com/icon -->

<svg
   xmlns:dc="http://purl.org/dc/elements/1.1/"
   xmlns:cc="http://creativecommons.org/ns#"
   xmlns:rdf="http://www.w3.org/1999/02/22-rdf-syntax-ns#"
   xmlns:svg="http://www.w3.org/2000/svg"
   xmlns="http://www.w3.org/2000/svg"
   xmlns:sodipodi="http://sodipodi.sourceforge.net/DTD/sodipodi-0.dtd"
   xmlns:inkscape="http://www.inkscape.org/namespaces/inkscape"
   version="1.1"
   x="0px"
   y="0px"
   viewBox="0 0 1000 1000"
   enable-background="new 0 0 1000 1000"
   xml:space="preserve"
   id="svg16"
   sodipodi:docname="pictures.svg"
   inkscape:version="0.92.5 (2060ec1f9f, 2020-04-08)"><defs
   id="defs20" /><sodipodi:namedview
   pagecolor="#ffffff"
   bordercolor="#666666"
   borderopacity="1"
   objecttolerance="10"
   gridtolerance="10"
   guidetolerance="10"
   inkscape:pageopacity="0"
   inkscape:pageshadow="2"
   inkscape:window-width="1366"
   inkscape:window-height="746"
   id="namedview18"
   showgrid="false"
   inkscape:zoom="0.236"
   inkscape:cx="500"
   inkscape:cy="500"
   inkscape:window-x="0"
   inkscape:window-y="0"
   inkscape:window-maximized="1"
   inkscape:current-layer="svg16" />
<metadata
   id="metadata2"> Svg Vector Icons : http://www.onlinewebfonts.com/icon <rdf:RDF><cc:Work
     rdf:about=""><dc:format>image/svg+xml</dc:format><dc:type
       rdf:resource="http://purl.org/dc/dcmitype/StillImage" /></cc:Work></rdf:RDF></metadata>
<g
   id="g14"
   style="fill:#0b222a;fill-opacity:1"><g
     transform="translate(0.000000,512.000000) scale(0.100000,-0.100000)"
     id="g12"
     style="fill:#0b222a;fill-opacity:1"><path
       d="M3775,3668.7c0-1226.9-3.8-1357.1-32.5-1404.9c-17.2-30.6-51.7-63.2-76.6-74.6c-30.6-15.3-409.6-21.1-1192.5-21.1H1325v-3408.9v-3409l65.1-65.1l65.1-65.1l3552.5,3.8l3552.5,5.7l51.7,53.6l53.6,51.7l5.7,4777.5l3.8,4777.5l-65.1,65.1l-65.1,65.1H6159.9H3775V3668.7z M7384.9,1279.9l65.1-65.1V-557.6V-2330H5000H2550v1772.4v1772.4l65.1,65.1l65.1,65.1H5000h2319.8L7384.9,1279.9z M7446.2-3086.1l-5.7-354.1l-53.6-51.7l-51.7-53.6l-2327.5-5.7l-2327.5-3.8l-65.1,65.1l-65.1,65.1v346.5v346.4h2451.9h2450L7446.2-3086.1z"
       id="path4"
       style="fill:#0b222a;fill-opacity:1" /><path
       d="M3985.5,489.4c-122.5-44-308.2-233.5-350.3-357.9c-137.8-405.8,149.3-819.2,568.5-823.1c243.1-1.9,442.2,124.4,551.3,348.4c53.6,107.2,61.2,145.5,61.2,262.2c-3.8,346.4-269.9,604.8-616.3,601C4129.1,520,4033.4,504.7,3985.5,489.4z M4310.9,87.5c164.6-97.6,103.4-369.4-84.2-369.4c-137.8,0-222,80.4-222,212.5c0,42.1,19.1,78.5,65.1,124.4C4144.4,129.6,4222.9,141.1,4310.9,87.5z"
       id="path6"
       style="fill:#0b222a;fill-opacity:1" /><path
       d="M5480.4-241.8c-44-11.5-145.5-118.7-528.3-545.5l-135.9-149.3l-202.9,88.1c-210.5,91.9-266.1,101.5-333,63.2c-76.6-42.1-769.5-834.5-782.9-892c-7.7-32.5,0-84.2,17.2-124.4c53.6-130.2,13.4-126.3,1441.3-126.3c1450.9,0,1387.7-5.7,1439.4,147.4l28.7,78.5l-99.5,189.5c-53.6,103.3-216.3,415.4-361.8,692.9c-166.5,319.6-281.4,518.7-312,539.8C5589.5-237.9,5537.9-226.4,5480.4-241.8z M5687.2-1166.3l174.2-340.7h-842.2c-704.4,0-842.2,3.8-828.8,26.8c7.7,13.4,65.1,80.4,126.3,145.5l109.1,120.6l206.7-88c112.9-49.8,227.8-90,256.5-90c68.9,0,120.6,47.9,379,342.6c120.6,137.8,223.9,243.1,231.6,235.4C5505.3-821.7,5589.5-980.6,5687.2-1166.3z"
       id="path8"
       style="fill:#0b222a;fill-opacity:1" /><path
       d="M2356.7,3766.3c-551.2-614.4-1008.7-1137-1016.4-1158c-13.4-38.3-9.6-38.3,1008.7-38.3h1024v1158c0,637.4-3.8,1158-7.7,1158C3361.6,4886,2907.9,4382.6,2356.7,3766.3z"
       id="path10"
       style="fill:#0b222a;fill-opacity:1" /></g></g>
</svg>